<mxfile host="app.diagrams.net" modified="2023-04-02T07:17:24.411Z" agent="Mozilla/5.0 (Windows NT 10.0; Win64; x64; rv:109.0) Gecko/20100101 Firefox/111.0" etag="gC4FZSu2wByV5T5-TUWR" version="21.1.1" type="github" pages="2">
  <diagram name="Page-1" id="3kGjm8ookdG6xw2Pn3U9">
    <mxGraphModel dx="794" dy="386" grid="1" gridSize="10" guides="1" tooltips="1" connect="1" arrows="1" fold="1" page="1" pageScale="1" pageWidth="827" pageHeight="1169" math="0" shadow="0">
      <root>
        <mxCell id="0" />
        <mxCell id="1" parent="0" />
        <mxCell id="Ija8U5ZVNo0uGnee3xCq-1" value="Cluster-002" style="rounded=1;whiteSpace=wrap;html=1;" parent="1" vertex="1">
          <mxGeometry x="360" y="160" width="120" height="60" as="geometry" />
        </mxCell>
        <mxCell id="Ija8U5ZVNo0uGnee3xCq-2" value="Cluster-001" style="rounded=1;whiteSpace=wrap;html=1;" parent="1" vertex="1">
          <mxGeometry x="150" y="160" width="120" height="60" as="geometry" />
        </mxCell>
        <mxCell id="Ija8U5ZVNo0uGnee3xCq-3" value="" style="rounded=1;whiteSpace=wrap;html=1;fillColor=none;" parent="1" vertex="1">
          <mxGeometry x="90" y="130" width="470" height="110" as="geometry" />
        </mxCell>
        <mxCell id="Ija8U5ZVNo0uGnee3xCq-4" value="Fleet-001" style="text;html=1;strokeColor=none;fillColor=none;align=center;verticalAlign=middle;whiteSpace=wrap;rounded=0;" parent="1" vertex="1">
          <mxGeometry x="390" y="40" width="60" height="30" as="geometry" />
        </mxCell>
        <mxCell id="Ija8U5ZVNo0uGnee3xCq-5" value="Network-Fleet-001" style="text;html=1;strokeColor=none;fillColor=none;align=center;verticalAlign=middle;whiteSpace=wrap;rounded=0;" parent="1" vertex="1">
          <mxGeometry x="390" y="70" width="140" height="30" as="geometry" />
        </mxCell>
      </root>
    </mxGraphModel>
  </diagram>
  <diagram id="6hAjkuqhC4unuOv5JYYL" name="fleet">
    <mxGraphModel dx="794" dy="386" grid="1" gridSize="10" guides="1" tooltips="1" connect="1" arrows="1" fold="1" page="1" pageScale="1" pageWidth="827" pageHeight="1169" math="0" shadow="0">
      <root>
        <mxCell id="0" />
        <mxCell id="1" parent="0" />
        <mxCell id="LKuyhAy3sVpjH6tdaoXm-5" value="" style="rounded=0;whiteSpace=wrap;html=1;fillColor=#dae8fc;dashed=1;dashPattern=8 8;strokeColor=#6c8ebf;" vertex="1" parent="1">
          <mxGeometry x="200" y="130" width="350" height="190" as="geometry" />
        </mxCell>
        <mxCell id="LKuyhAy3sVpjH6tdaoXm-1" value="hr-cluster-001" style="rounded=1;whiteSpace=wrap;html=1;" vertex="1" parent="1">
          <mxGeometry x="220" y="150" width="120" height="60" as="geometry" />
        </mxCell>
        <mxCell id="LKuyhAy3sVpjH6tdaoXm-2" value="&lt;div&gt;operations-cluster-001&lt;/div&gt;&lt;div&gt;&lt;br&gt;&lt;/div&gt;" style="rounded=1;whiteSpace=wrap;html=1;" vertex="1" parent="1">
          <mxGeometry x="414" y="150" width="120" height="60" as="geometry" />
        </mxCell>
        <mxCell id="LKuyhAy3sVpjH6tdaoXm-3" value="logistics-cluster-20" style="rounded=1;whiteSpace=wrap;html=1;" vertex="1" parent="1">
          <mxGeometry x="313" y="233" width="120" height="60" as="geometry" />
        </mxCell>
        <mxCell id="LKuyhAy3sVpjH6tdaoXm-6" value="Fleet-cluster group" style="text;html=1;strokeColor=none;fillColor=#000099;align=center;verticalAlign=middle;whiteSpace=wrap;rounded=0;fontColor=#FFFFFF;fontStyle=1" vertex="1" parent="1">
          <mxGeometry x="401" y="305" width="149" height="30" as="geometry" />
        </mxCell>
      </root>
    </mxGraphModel>
  </diagram>
</mxfile>
